<?xml version="1.0" encoding="iso-8859-1"?>
<!-- Generator: Adobe Illustrator 19.0.0, SVG Export Plug-In . SVG Version: 6.00 Build 0)  -->
<svg version="1.1" id="Capa_1" xmlns="http://www.w3.org/2000/svg" xmlns:xlink="http://www.w3.org/1999/xlink" x="0px" y="0px"
	 viewBox="0 0 448 448" style="enable-background:new 0 0 448 448;" xml:space="preserve">
<g>
	<path style="fill:#9F2BFB;" d="M416,64H32c-8.8,0-16.8,4-22.4,9.6S0,87.2,0,96v256c0,8.8,4,16.8,9.6,22.4S23.2,384,32,384h384
		c8.8,0,16.8-4,22.4-9.6s9.6-13.6,9.6-22.4V96c0-8.8-4-16.8-9.6-22.4S424.8,64,416,64z"/>
	<path style="fill:#7720BC;" d="M448,96v256c0,8.8-4,16.8-9.6,22.4L288,224L438.4,73.6C444,79.2,448,87.2,448,96z"/>
	<path style="fill:#7720BC;" d="M160,224L9.6,374.4C4,368.8,0,360.8,0,352V96c0-8.8,4-16.8,9.6-22.4L160,224z"/>
	<path style="fill:#F3E4FF;" d="M438.4,73.6l-192,192c-12.8,12.8-32.8,12.8-45.6,0l-192-192C15.2,68,23.2,64,32,64h384
		C424.8,64,432.8,68,438.4,73.6z"/>
</g>
<g>
</g>
<g>
</g>
<g>
</g>
<g>
</g>
<g>
</g>
<g>
</g>
<g>
</g>
<g>
</g>
<g>
</g>
<g>
</g>
<g>
</g>
<g>
</g>
<g>
</g>
<g>
</g>
<g>
</g>
</svg>
